# xmcd
#
# Track frame offsets:
#	150
#	13512
#	28365
#	42090
#	56925
#	72422
#	88532
#	104230
#	121177
#
# Disc length: 1833
#
# Revision: 2
# Processed by: cddbd v1.5.1PL0 Copyright (c) Steve Scherf et al.
# Submitted via: CDex 1.30Release
# Normalized: r1:TDELIM( - )
#
DISCID=7e072709
DTITLE=Various Artist - Kraft Country Tour '96
DYEAR=1996
DGENRE=Country
TTITLE0=Carlene Carter - Come On Back
TTITLE1=Pam Tilis - How Gone Is Goodbye
TTITLE2=Lorrie Morgan - Gonna Leave The Lights On
TTITLE3=Carlene Carter - He Will Be Mine
TTITLE4=Lorrie Morgan - He Talks To Me
TTITLE5=Carlene Carter - I Love You 'Cause I Want To
TTITLE6=Pam Tillis - Melancholy Child
TTITLE7=Pam Tillis - Do You Know Where Your Man Is
TTITLE8=Lorrie Morgan - If You Came Back From Heaven
EXTD=YEAR: 1996 ID3G:   2
EXTT0=
EXTT1=
EXTT2=
EXTT3=
EXTT4=
EXTT5=
EXTT6=
EXTT7=
EXTT8=
PLAYORDER=
